HIERARCHY
ROOT Hips
{
  OFFSET 5.84602e-005 68.8428 3.50346
  CHANNELS 6 Xposition Yposition Zposition Zrotation Xrotation Yrotation
  JOINT Spine
  {
    OFFSET 0 8.597 -4.6522
    CHANNELS 3 Zrotation Xrotation Yrotation
    JOINT Spine1
    {
      OFFSET 0 7.8454 0.4098
      CHANNELS 3 Zrotation Xrotation Yrotation
      JOINT Spine2
      {
        OFFSET 0 9.7078 -2.1609
        CHANNELS 3 Zrotation Xrotation Yrotation
        JOINT Neck
        {
          OFFSET 0 21.8761 -0.4549
          CHANNELS 3 Zrotation Xrotation Yrotation
          JOINT Head
          {
            OFFSET 0 12.3537 3.3602
            CHANNELS 3 Zrotation Xrotation Yrotation
            End Site
            {
              OFFSET 0.0001 18.9506 0.5657
            }
          }
        }
        JOINT LeftShoulder
        {
          OFFSET 2.2086 21.1115 7.2329
          CHANNELS 3 Zrotation Xrotation Yrotation
          JOINT LeftArm
          {
            OFFSET 13.1193 3.0282 -4.8998
            CHANNELS 3 Zrotation Xrotation Yrotation
            JOINT LeftForeArm
            {
              OFFSET 27.4081 -0.0973053 -0.2375
              CHANNELS 3 Zrotation Xrotation Yrotation
              JOINT LeftHand
              {
                OFFSET 22.8641 0.0662994 -0.1369
                CHANNELS 3 Zrotation Xrotation Yrotation
                JOINT LeftHandIndex1
                {
                  OFFSET 8.8614 0.775009 2.4612
                  CHANNELS 3 Zrotation Xrotation Yrotation
                  JOINT LeftHandIndex2
                  {
                    OFFSET 3.3146 -0.808304 0.5841
                    CHANNELS 3 Zrotation Xrotation Yrotation
                    JOINT LeftHandIndex3
                    {
                      OFFSET 2.2628 -0.552002 0.3989
                      CHANNELS 3 Zrotation Xrotation Yrotation
                      End Site
                      {
                        OFFSET 1.6102 -0.4807 0.2612
                      }
                    }
                  }
                }
                JOINT LeftHandMiddle1
                {
                  OFFSET 8.9937 0.895004 0.2143
                  CHANNELS 3 Zrotation Xrotation Yrotation
                  JOINT LeftHandMiddle2
                  {
                    OFFSET 4.0984 0.0113983 -0.0242
                    CHANNELS 3 Zrotation Xrotation Yrotation
                    JOINT LeftHandMiddle3
                    {
                      OFFSET 2.2716 0.00689697 -0.0138001
                      CHANNELS 3 Zrotation Xrotation Yrotation
                      End Site
                      {
                        OFFSET 2.0404 -0.1441 0.0027
                      }
                    }
                  }
                }
                JOINT LeftHandRing1
                {
                  OFFSET 8.5234 0.597198 -2.0164
                  CHANNELS 3 Zrotation Xrotation Yrotation
                  JOINT LeftHandRing2
                  {
                    OFFSET 3.7188 -0.188293 -0.2328
                    CHANNELS 3 Zrotation Xrotation Yrotation
                    JOINT LeftHandRing3
                    {
                      OFFSET 2.1191 -0.106598 -0.1332
                      CHANNELS 3 Zrotation Xrotation Yrotation
                      End Site
                      {
                        OFFSET 1.8737 -0.2304 -0.0886
                      }
                    }
                  }
                }
                JOINT LeftHandPinky1
                {
                  OFFSET 7.9094 -0.601089 -3.4825
                  CHANNELS 3 Zrotation Xrotation Yrotation
                  JOINT LeftHandPinky2
                  {
                    OFFSET 2.2874 -0.477005 -0.6314
                    CHANNELS 3 Zrotation Xrotation Yrotation
                    JOINT LeftHandPinky3
                    {
                      OFFSET 1.6774 -0.349396 -0.4633
                      CHANNELS 3 Zrotation Xrotation Yrotation
                      End Site
                      {
                        OFFSET 1.4888 -0.4091 -0.3416
                      }
                    }
                  }
                }
                JOINT LeftHandThumb1
                {
                  OFFSET 1.833 -1.3875 1.3896
                  CHANNELS 3 Zrotation Xrotation Yrotation
                  JOINT LeftHandThumb2
                  {
                    OFFSET 3.4129 -1.121 2.5732
                    CHANNELS 3 Zrotation Xrotation Yrotation
                    JOINT LeftHandThumb3
                    {
                      OFFSET 2.2474 -0.804199 1.6192
                      CHANNELS 3 Zrotation Xrotation Yrotation
                      End Site
                      {
                        OFFSET 1.6527 -0.5689 1.1317
                      }
                    }
                  }
                }
              }
            }
          }
        }
        JOINT RightShoulder
        {
          OFFSET -2.2086 21.1115 7.2329
          CHANNELS 3 Zrotation Xrotation Yrotation
          JOINT RightArm
          {
            OFFSET -13.1216 3.0287 -4.9007
            CHANNELS 3 Zrotation Xrotation Yrotation
            JOINT RightForeArm
            {
              OFFSET -27.4081 -0.0973053 -0.2375
              CHANNELS 3 Zrotation Xrotation Yrotation
              JOINT RightHand
              {
                OFFSET -22.8641 0.0664063 -0.1369
                CHANNELS 3 Zrotation Xrotation Yrotation
                JOINT RightHandIndex1
                {
                  OFFSET -8.8614 0.774994 2.4612
                  CHANNELS 3 Zrotation Xrotation Yrotation
                  JOINT RightHandIndex2
                  {
                    OFFSET -3.3146 -0.808304 0.5841
                    CHANNELS 3 Zrotation Xrotation Yrotation
                    JOINT RightHandIndex3
                    {
                      OFFSET -2.2628 -0.552002 0.3989
                      CHANNELS 3 Zrotation Xrotation Yrotation
                      End Site
                      {
                        OFFSET -1.6102 -0.4807 0.2612
                      }
                    }
                  }
                }
                JOINT RightHandMiddle1
                {
                  OFFSET -8.9937 0.894989 0.2143
                  CHANNELS 3 Zrotation Xrotation Yrotation
                  JOINT RightHandMiddle2
                  {
                    OFFSET -4.0984 0.0113983 -0.0242
                    CHANNELS 3 Zrotation Xrotation Yrotation
                    JOINT RightHandMiddle3
                    {
                      OFFSET -2.2716 0.00691223 -0.0138001
                      CHANNELS 3 Zrotation Xrotation Yrotation
                      End Site
                      {
                        OFFSET -2.0404 -0.1441 0.0027
                      }
                    }
                  }
                }
                JOINT RightHandRing1
                {
                  OFFSET -8.5234 0.597198 -2.0164
                  CHANNELS 3 Zrotation Xrotation Yrotation
                  JOINT RightHandRing2
                  {
                    OFFSET -3.7188 -0.188309 -0.2328
                    CHANNELS 3 Zrotation Xrotation Yrotation
                    JOINT RightHandRing3
                    {
                      OFFSET -2.1191 -0.106598 -0.1332
                      CHANNELS 3 Zrotation Xrotation Yrotation
                      End Site
                      {
                        OFFSET -1.8737 -0.2304 -0.0886
                      }
                    }
                  }
                }
                JOINT RightHandPinky1
                {
                  OFFSET -7.9094 -0.601105 -3.4825
                  CHANNELS 3 Zrotation Xrotation Yrotation
                  JOINT RightHandPinky2
                  {
                    OFFSET -2.2874 -0.477005 -0.6314
                    CHANNELS 3 Zrotation Xrotation Yrotation
                    JOINT RightHandPinky3
                    {
                      OFFSET -1.6774 -0.349396 -0.4633
                      CHANNELS 3 Zrotation Xrotation Yrotation
                      End Site
                      {
                        OFFSET -1.4888 -0.4091 -0.3416
                      }
                    }
                  }
                }
                JOINT RightHandThumb1
                {
                  OFFSET -1.833 -1.38751 1.3896
                  CHANNELS 3 Zrotation Xrotation Yrotation
                  JOINT RightHandThumb2
                  {
                    OFFSET -3.41299 -1.12099 2.5732
                    CHANNELS 3 Zrotation Xrotation Yrotation
                    JOINT RightHandThumb3
                    {
                      OFFSET -2.24741 -0.804108 1.6192
                      CHANNELS 3 Zrotation Xrotation Yrotation
                      End Site
                      {
                        OFFSET -1.6527 -0.5689 1.1317
                      }
                    }
                  }
                }
              }
            }
          }
        }
      }
    }
  }
  JOINT RightUpLeg
  {
    OFFSET -9.1966 3.8861 -0.7581
    CHANNELS 3 Zrotation Xrotation Yrotation
    JOINT RightLeg
    {
      OFFSET -0.7359 -41.0265 0
      CHANNELS 3 Zrotation Xrotation Yrotation
      JOINT RightFoot
      {
        OFFSET 0 -40.2855 0
        CHANNELS 3 Zrotation Xrotation Yrotation
        JOINT RightToeBase
        {
          OFFSET 0 -5.6122 11.7359
          CHANNELS 3 Zrotation Xrotation Yrotation
          End Site
          {
            OFFSET 0 0 7.8731
          }
        }
      }
    }
  }
  JOINT LeftUpLeg
  {
    OFFSET 9.1965 3.8864 -0.7581
    CHANNELS 3 Zrotation Xrotation Yrotation
    JOINT LeftLeg
    {
      OFFSET 0.7359 -41.0268 0
      CHANNELS 3 Zrotation Xrotation Yrotation
      JOINT LeftFoot
      {
        OFFSET 0 -40.2855 0
        CHANNELS 3 Zrotation Xrotation Yrotation
        JOINT LeftToeBase
        {
          OFFSET 0 -5.6122 11.7359
          CHANNELS 3 Zrotation Xrotation Yrotation
          End Site
          {
            OFFSET 0 0 7.8731
          }
        }
      }
    }
  }
}
MOTION
Frames:	5
Frame Time:	0.0333333
-0.00156222 8.19205 113.525 -0.0122375 0.0122375 180 -0.160673 16.7209 -0.132872 -0.299268 33.4421 -0.229973 -0.299268 33.4421 -0.229973 15.5713 -42.9414 10.7466 8.54885 -5.71456 0.947032 35.2555 -47.7859 58.026 -69.7039 15.5493 -38.5415 55.3748 0.908497 -97.4907 18.8912 -29.7784 6.87527 -3.97569e-015 -1.19271e-015 -6.36111e-015 2.86871e-006 5.67486e-007 -2.06374e-006 1.32747e-006 -9.96708e-007 -1.5152e-007 -3.97569e-015 -1.19271e-015 -6.36111e-015 -0.014611 -9.05669e-005 -2.64102e-006 1.87079e-006 -7.59776e-007 -1.69349e-006 -3.97569e-015 -1.19271e-015 -6.36111e-015 -0.018754 -0.0011752 5.96741e-005 1.32753e-006 -9.9668e-007 -1.51697e-007 -3.97569e-015 -1.19271e-015 -6.36111e-015 -0.0122842 -0.00325291 0.000675499 1.3275e-006 -9.96689e-007 -1.51667e-007 -3.97569e-015 -1.19271e-015 -6.36111e-015 2.86871e-006 5.67486e-007 -2.06374e-006 1.32747e-006 -9.96708e-007 -1.5152e-007 -3.64379 -22.4294 -21.5892 76.3039 17.6268 39.6231 4.79661 -22.256 75.641 3.93778 13.8955 17.1114 2.78299e-015 1.35174e-014 -3.18055e-015 7.95139e-016 5.56597e-015 -0 3.97569e-016 7.7526e-015 3.18055e-015 2.78299e-015 1.35174e-014 -3.18055e-015 0.0149934 -9.00671e-005 6.83298e-006 -3.18055e-015 -9.93923e-016 3.18055e-015 2.78299e-015 1.35174e-014 -3.18055e-015 0.0190035 -0.00119216 -6.06532e-005 -1.19271e-015 2.62396e-014 -3.18055e-015 2.78299e-015 1.35174e-014 -3.18055e-015 0.0122183 -0.00323436 -0.000670622 1.84161e-006 -5.24967e-007 1.11356e-006 2.78299e-015 1.35174e-014 -3.18055e-015 7.95139e-016 5.56597e-015 -0 3.97569e-016 7.7526e-015 3.18055e-015 -8.19985 -53.5674 -18.1609 -175.027 25.078 168.779 -7.11241 50.0583 -6.69417 4.2183e-007 2.69503e-008 7.69295e-007 8.19768 -53.5391 18.1304 175.042 25.0946 -168.805 7.10738 50.0474 6.67805 8.19139e-008 -1.67799e-007 2.18088e-007 
-0.00156222 8.19205 113.525 -0.0122375 0.0122375 180 -0.161593 17.0695 -0.135646 -0.300123 34.1393 -0.235006 -0.300123 34.1393 -0.235006 14.6758 -43.0619 10.1359 8.03648 -4.50734 0.805894 38.2562 -49.1301 61.6048 -69.7101 15.5587 -38.5303 55.3415 0.330892 -98.0194 18.5599 -29.9244 8.16734 7.95139e-016 1.11319e-014 -0 1.59028e-015 1.19271e-015 3.18055e-015 7.95139e-016 7.15625e-015 3.18055e-015 7.95139e-016 1.11319e-014 -0 -0.0145921 -8.79415e-005 -7.6314e-006 2.64834e-031 -2.38542e-015 6.36111e-015 7.95139e-016 1.11319e-014 -0 -0.0187968 -0.00117941 5.65955e-005 2.38542e-015 -3.97569e-015 -1.59028e-014 7.95139e-016 1.11319e-014 -0 -0.0122914 -0.00325486 0.000670719 7.95139e-016 4.77083e-015 3.18055e-015 7.95139e-016 1.11319e-014 -0 1.59028e-015 1.19271e-015 3.18055e-015 7.95139e-016 7.15625e-015 3.18055e-015 -4.34393 -24.6706 -25.1379 76.5905 18.2651 39.6049 5.27666 -20.8012 78.2008 5.28302 12.3482 12.4524 3.97569e-016 1.49089e-014 -3.18055e-015 1.59028e-015 1.8487e-014 -6.36111e-015 1.98785e-015 4.57205e-015 -3.18055e-015 3.97569e-016 1.49089e-014 -3.18055e-015 0.0150272 -9.01096e-005 1.26068e-006 1.19271e-015 -6.16232e-015 -3.18055e-015 3.97569e-016 1.49089e-014 -3.18055e-015 0.0189954 -0.00118929 -5.86464e-005 1.19271e-015 4.77083e-015 -0 3.97569e-016 1.49089e-014 -3.18055e-015 0.0122687 -0.00324595 -0.00067169 3.97569e-016 3.18055e-015 -0 3.97569e-016 1.49089e-014 -3.18055e-015 1.59028e-015 1.8487e-014 -6.36111e-015 1.98785e-015 4.57205e-015 -3.18055e-015 -8.19985 -53.5674 -18.1609 -175.027 25.078 168.779 -7.11241 50.0583 -6.69417 4.2183e-007 2.69503e-008 7.69295e-007 8.19768 -53.5391 18.1304 175.042 25.0946 -168.805 7.10738 50.0474 6.67805 8.19139e-008 -1.67799e-007 2.18088e-007 
-0.00156222 8.19205 113.525 -0.0122375 0.0122375 180 -0.162473 17.4198 -0.138416 -0.300862 34.8398 -0.240064 -0.300862 34.8398 -0.240064 13.7765 -43.176 9.52144 7.5269 -3.29666 0.675537 41.4778 -50.3493 65.4022 -69.7163 15.568 -38.519 55.3028 -0.246753 -98.5488 18.2312 -30.0772 9.46346 -2.12661e-007 -9.82211e-007 -8.29537e-006 -3.07285e-006 2.97446e-007 -6.39132e-006 -1.82949e-006 3.41272e-007 3.07604e-007 -2.12661e-007 -9.82211e-007 -8.29537e-006 -0.0145927 -8.92089e-005 -1.13451e-005 -1.73574e-006 6.2628e-008 -1.03222e-006 -2.12661e-007 -9.82211e-007 -8.29537e-006 -0.0187523 -0.00117485 6.16898e-005 -1.82954e-006 3.4122e-007 3.07679e-007 -2.12661e-007 -9.82211e-007 -8.29537e-006 -0.0122813 -0.00325307 0.000672809 -1.82951e-006 3.41241e-007 3.07694e-007 -2.12661e-007 -9.82211e-007 -8.29537e-006 -3.07285e-006 2.97446e-007 -6.39132e-006 -1.82949e-006 3.41272e-007 3.07604e-007 -5.21254 -26.8698 -28.7885 76.8785 18.9036 39.5832 5.68525 -19.3187 80.7394 6.49035 10.6973 7.84995 2.38542e-015 -1.25234e-014 -0 1.98785e-015 -5.1684e-015 -0 1.19271e-015 -1.0138e-014 3.18055e-015 2.38542e-015 -1.25234e-014 -0 0.0149967 -9.59887e-005 1.95003e-006 1.19271e-015 -5.96354e-016 -3.18055e-015 2.38542e-015 -1.25234e-014 -0 0.0190043 -0.00118451 -5.77015e-005 1.59028e-015 -3.18055e-015 -0 2.38542e-015 -1.25234e-014 -0 0.0122721 -0.00325037 -0.000681545 -1.59028e-015 -6.95746e-015 6.36111e-015 2.38542e-015 -1.25234e-014 -0 1.98785e-015 -5.1684e-015 -0 1.19271e-015 -1.0138e-014 3.18055e-015 -8.19985 -53.5674 -18.1609 -175.027 25.078 168.779 -7.11241 50.0583 -6.69417 4.2183e-007 2.69503e-008 7.69295e-007 8.19768 -53.5391 18.1304 175.042 25.0946 -168.805 7.10738 50.0474 6.67805 8.19139e-008 -1.67799e-007 2.18088e-007 
-0.00156222 8.19205 113.525 -0.0122375 0.0122375 180 -0.163311 17.7715 -0.141179 -0.301483 35.5434 -0.245145 -0.301482 35.5433 -0.245145 12.8736 -43.2829 8.90317 7.01976 -2.08292 0.555911 44.9143 -51.4276 69.4124 -69.7226 15.5774 -38.5078 55.2588 -0.824335 -99.0789 17.9054 -30.2367 10.7632 2.01622e-007 3.33682e-007 2.81467e-006 -1.18789e-007 2.06364e-007 1.3351e-006 3.18055e-015 -4.37326e-015 -0 2.01622e-007 3.33682e-007 2.81467e-006 -0.0145977 -8.90837e-005 -1.97917e-006 1.59028e-015 -7.15625e-015 -6.36111e-015 2.01622e-007 3.33682e-007 2.81467e-006 -0.0187597 -0.00117837 5.56937e-005 1.59028e-015 7.55382e-015 -0 2.01622e-007 3.33682e-007 2.81467e-006 -0.0122824 -0.00325003 0.000679475 -3.18055e-015 4.37326e-015 -0 2.01622e-007 3.33682e-007 2.81467e-006 -1.18789e-007 2.06364e-007 1.3351e-006 3.18055e-015 -4.37326e-015 -0 -6.25567 -29.0113 -32.5462 77.1681 19.5423 39.5581 6.02241 -17.8132 83.2573 7.55182 8.96053 3.31515 -1.98785e-015 9.93923e-016 -6.36111e-015 -1.98785e-015 -8.34896e-015 -9.54166e-015 -7.95139e-016 6.75868e-015 -3.18055e-015 -1.98785e-015 9.93923e-016 -6.36111e-015 0.0150018 -8.85238e-005 3.50537e-006 5.51738e-032 9.93923e-016 -3.18055e-015 -1.98785e-015 9.93923e-016 -6.36111e-015 0.0190072 -0.00119032 -6.06366e-005 2.38542e-015 3.18055e-015 3.18055e-015 -1.98785e-015 9.93923e-016 -6.36111e-015 0.0122718 -0.00325083 -0.00067044 3.97569e-015 -4.57205e-015 -6.36111e-015 -1.98785e-015 9.93923e-016 -6.36111e-015 -1.98785e-015 -8.34896e-015 -9.54166e-015 -7.95139e-016 6.75868e-015 -3.18055e-015 -8.19985 -53.5674 -18.1609 -175.027 25.078 168.779 -7.11241 50.0583 -6.69417 4.2183e-007 2.69503e-008 7.69295e-007 8.19768 -53.5391 18.1304 175.042 25.0946 -168.805 7.10738 50.0474 6.67805 8.19139e-008 -1.67799e-007 2.18088e-007 
-0.00156222 8.19205 113.525 -0.0122375 0.0122375 180 -0.164105 18.1246 -0.143933 -0.301977 36.2494 -0.250252 -0.301977 36.2494 -0.250252 11.9673 -43.3823 8.2814 6.51477 -0.866566 0.446955 48.5514 -52.35 73.6211 -69.7288 15.5868 -38.4965 55.2094 -1.40179 -99.6099 17.5828 -30.4029 12.0664 -4.54324e-007 -7.84391e-007 -2.73075e-006 -3.18055e-015 4.37326e-015 -0 -5.12252e-008 1.20695e-007 2.90412e-006 -4.54324e-007 -7.84391e-007 -2.73075e-006 -0.0146166 -9.05816e-005 -6.41534e-006 -2.52771e-007 -3.31859e-007 8.66444e-008 -4.54324e-007 -7.84391e-007 -2.73075e-006 -0.0187378 -0.00117675 5.58686e-005 -2.5277e-007 -3.31862e-007 8.66349e-008 -4.54324e-007 -7.84391e-007 -2.73075e-006 -0.0122441 -0.00324059 0.000677081 -2.52771e-007 -3.31855e-007 8.66581e-008 -4.54324e-007 -7.84391e-007 -2.73075e-006 -3.18055e-015 4.37326e-015 -0 -5.12252e-008 1.20695e-007 2.90412e-006 -7.4779 -31.0791 -36.4152 77.4592 20.181 39.5294 6.28848 -16.2894 85.7549 8.46258 7.15659 -1.14326 1.19271e-015 -5.56597e-015 -3.18055e-015 3.18055e-015 3.18055e-015 -3.18055e-015 7.95139e-016 1.98785e-015 -6.36111e-015 1.19271e-015 -5.56597e-015 -3.18055e-015 0.014993 -8.91805e-005 -4.29889e-006 1.87632e-006 -3.74483e-007 1.76656e-006 1.19271e-015 -5.56597e-015 -3.18055e-015 0.0189896 -0.00118783 -6.21417e-005 1.19271e-015 -3.97569e-016 -0 1.19271e-015 -5.56597e-015 -3.18055e-015 0.0122841 -0.00324707 -0.000676192 2.38542e-015 3.97569e-016 -0 1.19271e-015 -5.56597e-015 -3.18055e-015 3.18055e-015 3.18055e-015 -3.18055e-015 7.95139e-016 1.98785e-015 -6.36111e-015 -8.19985 -53.5674 -18.1609 -175.027 25.078 168.779 -7.11241 50.0583 -6.69417 4.2183e-007 2.69503e-008 7.69295e-007 8.19768 -53.5391 18.1304 175.042 25.0946 -168.805 7.10738 50.0474 6.67805 8.19139e-008 -1.67799e-007 2.18088e-007 
